<?xml version="1.0" encoding="utf-8"?>
<!-- Generator: Adobe Illustrator 28.0.0, SVG Export Plug-In . SVG Version: 6.00 Build 0)  -->
<svg version="1.1" id="Capa_1" xmlns="http://www.w3.org/2000/svg" xmlns:xlink="http://www.w3.org/1999/xlink" x="0px" y="0px"
	 viewBox="0 0 1080 1080" style="enable-background:new 0 0 1080 1080;" xml:space="preserve">
<style type="text/css">
	.st0{fill:#442665;}
	.st1{fill:#989898;}
	.st2{fill:#795391;}
	.st3{fill:#652C86;}
	.st4{fill:#6E378B;}
	.st5{fill:#498B3A;}
	.st6{fill:#3C7B31;}
	.st7{fill:#579249;}
	.st8{fill:#7C5D14;}
	.st9{fill:#89713F;}
</style>
<g>
	<path class="st0" d="M268.79,763.17l-151.2,87.28c-6.74-21.46-8.57-43.39-2-65.36c5.42-18.09,18.24-28.72,36.55-31.35
		c27.89-4.01,51.7-12.49,71.75-25.09L268.79,763.17z"/>
	<polygon class="st1" points="401.28,853.78 401.37,853.27 402.27,853.96 	"/>
	<path class="st2" d="M394.37,849.06l-148.34-114.1c33.92-23.28,56.46-58.95,69.48-104.98c0.93-3.28,1.89-6.56,2.86-9.82
		l89.76,155.43L394.37,849.06z"/>
	<path class="st3" d="M411.32,773.41l-89.59-155.16v-0.02c20.73-68.82,51.41-132.24,102.19-184.77
		c8.55-8.85,17.49-17.14,26.81-24.91l27.56,7.07L411.32,773.41z"/>
	<path class="st2" d="M312.13,1033.87c-13.12-4.43-26.14-9.74-39.03-15.99c-69.98-33.95-122.19-85.21-147.88-159.92l154.59-89.24
		l86.28,66.36L312.13,1033.87z"/>
	<path class="st0" d="M373.09,847.69l204.96,157.64l-24.49,42.43h-0.02c-11.48,2.88-23.11,5.46-34.94,7.77
		c-29.28,5.7-58.38,8.85-87.16,8.85c-38.1,0-75.63-5.51-112.31-17.89L373.09,847.69z"/>
	<path class="st2" d="M589.83,1007.61l27.89,21.45c-15.97,5.73-32.32,10.79-49.06,15.22L589.83,1007.61z"/>
	<polygon class="st4" points="586.49,1001.84 396.48,855.71 404.65,857.23 443,652.37 640.02,909.12 	"/>
	<path class="st0" d="M659.17,452.62l-173.58-44.5l-8.75-2.25l-0.29-0.05l-23.11-5.93c55.86-44.52,124.55-69.9,201.05-74.43
		L659.17,452.62z"/>
	<path class="st4" d="M649.76,912.51l59.54,77.6c-25.57,14.83-52.51,27.43-80.73,37.91l-31.52-24.25L649.76,912.51z"/>
	<polygon class="st3" points="485.94,420.74 710.78,478.37 503.31,714 445.21,638.31 	"/>
	<path class="st4" d="M792.64,676.87l-12.33,272.44c-19.32,16.19-39.69,30.68-61.06,43.55l-62.23-81.09l135.6-234.88L792.64,676.87z
		"/>
	<polygon class="st2" points="650.27,899.64 513.87,721.88 725.1,482.01 797.48,500.56 797.5,500.56 790.43,656.88 790.41,656.9 	
		"/>
	<polygon class="st3" points="804.86,502.44 869.95,519.13 798.51,642.87 	"/>
	<path class="st3" d="M693.8,468.85l-27.15-6.96l-4.71-129.86c4.56-0.16,9.16-0.27,13.77-0.29c48.51-0.98,97.79,11.97,140.25,37.95
		L693.8,468.85z"/>
	<path class="st0" d="M832.77,366.88c32.9,20.14,61.7,48.1,82.87,83.47l-34.32,59.45l-67.78-17.38h-0.02l-4.4-1.12l-0.07-0.02
		l-71.3-18.28l-8.74-2.23l-18.41-4.72L832.77,366.88z"/>
	<path class="st3" d="M880.34,529.54l31.76-55.01c11.74,20.9,20.86,44.25,26.68,70L880.34,529.54z"/>
	<path class="st2" d="M858.84,877.2c-22.67,31.1-47.73,58.44-74.98,82.28l12.65-279.84l78.05-135.16l62.76,16.08
		c1.35,6.68,2.49,13.53,3.41,20.55C955.04,691.28,922.92,789.26,858.84,877.2z"/>
	<path class="st5" d="M727.47,95.18l-60.28,37.18l-0.02,0.02h-0.04l-6.81,0.26l0.15,3.94l-0.44,0.27
		c-2.14-8.3-3.85-16.79-3.76-25.42L727.47,95.18z"/>
	<path class="st6" d="M713.12,117.81c21.19,40.24,32.67,82.61,30.77,132.34c-10.35-6.89-19.05-11.67-26.56-17.87
		c-20.2-16.72-34.25-36.68-43.92-58.75l-1.08-29.98L713.12,117.81z"/>
	<path class="st5" d="M759.67,80.68l-97.94,20.93c-3.3-27.65-2.86-55.8-4.21-83.71c1.81-0.77,3.63-1.52,5.46-2.27
		c36.15,16.85,71.28,35.27,98.25,64.06L759.67,80.68z"/>
	<path class="st7" d="M767.57,232.05c-6.19-21.52-10.71-43.99-19.21-64.83c-8.13-19.93-19.74-38.42-32.07-56.63l32.98-20.82h0.02
		l9.78-2.23l-0.79-3.44l4.23-2.67c6.96,7.95,13.31,16.68,18.92,26.34C804.34,147.16,797.97,197.43,767.57,232.05z"/>
	<path class="st8" d="M826.64,194.6l29.28,67.91c-31.13,9.71-48.55,33.83-64.43,66.52c-14.89-4.89-28.88-9.49-42.82-14.07
		C753.68,260.73,783.11,219.37,826.64,194.6z"/>
	<path class="st9" d="M968.5,185.02c-4.21,32.23-8.41,64.39-12.66,96.81c-38.31-9.56-66.63-10.82-88.51-5.51l-29.83-69.21
		C873.92,187.97,919.45,179.93,968.5,185.02z"/>
</g>
</svg>
