<?xml version="1.0" encoding="utf-8"?>
<!-- Generator: Adobe Illustrator 28.0.0, SVG Export Plug-In . SVG Version: 6.00 Build 0)  -->
<svg version="1.1" id="Capa_1" xmlns="http://www.w3.org/2000/svg" xmlns:xlink="http://www.w3.org/1999/xlink" x="0px" y="0px"
	 viewBox="0 0 1080 1080" style="enable-background:new 0 0 1080 1080;" xml:space="preserve">
<style type="text/css">
	.st0{fill:#FFFFFF;}
</style>
<path class="st0" d="M266.77,765.37l-152.61,88.1c-6.8-21.66-8.65-43.79-2.01-65.97c5.47-18.26,18.41-28.98,36.9-31.65
	c28.15-4.05,52.18-12.61,72.42-25.32L266.77,765.37z"/>
<polygon class="st0" points="400.48,856.82 400.58,856.3 401.48,857.01 "/>
<path class="st0" d="M393.51,852.06L243.78,736.9c34.23-23.49,56.99-59.5,70.13-105.96c0.94-3.31,1.9-6.62,2.88-9.91l90.59,156.88
	L393.51,852.06z"/>
<path class="st0" d="M410.62,775.7L320.2,619.1v-0.02c20.92-69.47,51.89-133.48,103.15-186.49c8.63-8.93,17.65-17.3,27.06-25.14
	l27.82,7.14L410.62,775.7z"/>
<path class="st0" d="M310.5,1038.6c-13.25-4.47-26.38-9.83-39.4-16.14c-70.63-34.27-123.33-86.01-149.27-161.41l156.03-90.08
	l87.09,66.98L310.5,1038.6z"/>
<path class="st0" d="M372.03,850.68l206.87,159.11l-24.71,42.83h-0.02c-11.59,2.9-23.33,5.51-35.27,7.84
	c-29.56,5.75-58.93,8.93-87.97,8.93c-38.46,0-76.34-5.56-113.36-18.06L372.03,850.68z"/>
<path class="st0" d="M590.8,1012.09l28.15,21.65c-16.12,5.79-32.63,10.89-49.52,15.36L590.8,1012.09z"/>
<polygon class="st0" points="587.43,1006.27 395.65,858.78 403.89,860.31 442.6,653.54 641.46,912.68 "/>
<path class="st0" d="M660.78,451.91L485.58,407l-8.84-2.27l-0.3-0.06l-23.33-5.99c56.38-44.94,125.72-70.56,202.93-75.12
	L660.78,451.91z"/>
<path class="st0" d="M651.29,916.1l60.09,78.32c-25.8,14.97-53,27.69-81.48,38.26l-31.81-24.47L651.29,916.1z"/>
<polygon class="st0" points="485.94,419.74 712.88,477.91 503.47,715.74 444.83,639.34 "/>
<path class="st0" d="M795.5,678.26l-12.44,274.98c-19.5,16.34-40.06,30.96-61.63,43.96l-62.81-81.85l136.86-237.07L795.5,678.26z"/>
<polygon class="st0" points="651.8,903.11 514.13,723.69 727.33,481.58 800.39,500.3 800.4,500.3 793.27,658.09 793.25,658.11 "/>
<polygon class="st0" points="807.83,502.21 873.53,519.05 801.42,643.95 "/>
<path class="st0" d="M695.74,468.3l-27.4-7.03l-4.75-131.08c4.6-0.17,9.24-0.28,13.9-0.3c48.97-0.99,98.71,12.08,141.56,38.3
	L695.74,468.3z"/>
<path class="st0" d="M836,365.38c33.21,20.32,62.28,48.55,83.64,84.25l-34.64,60l-68.41-17.54h-0.02l-4.44-1.13l-0.07-0.02
	L740.1,472.5l-8.82-2.26l-18.59-4.77L836,365.38z"/>
<path class="st0" d="M884.02,529.56l32.05-55.53c11.85,21.09,21.05,44.66,26.93,70.65L884.02,529.56z"/>
<path class="st0" d="M862.32,880.46c-22.88,31.39-48.17,58.99-75.68,83.05l12.77-282.45l78.78-136.42l63.35,16.23
	c1.37,6.75,2.51,13.66,3.44,20.74C959.42,692.8,927,791.7,862.32,880.46z"/>
<path class="st0" d="M729.72,91.14l-60.84,37.52l-0.02,0.02h-0.04l-6.88,0.26l0.15,3.97l-0.44,0.28c-2.16-8.37-3.88-16.95-3.8-25.66
	L729.72,91.14z"/>
<path class="st0" d="M715.24,113.99c21.39,40.61,32.98,83.39,31.05,133.57c-10.44-6.95-19.22-11.77-26.8-18.04
	c-20.39-16.88-34.57-37.03-44.33-59.3l-1.09-30.26L715.24,113.99z"/>
<path class="st0" d="M762.23,76.51l-98.86,21.13c-3.33-27.91-2.88-56.32-4.25-84.49c1.83-0.78,3.66-1.53,5.51-2.29
	c36.49,17.01,71.94,35.6,99.17,64.66L762.23,76.51z"/>
<path class="st0" d="M770.19,229.29c-6.25-21.72-10.81-44.4-19.39-65.44c-8.21-20.11-19.93-38.78-32.37-57.16l33.29-21.02h0.02
	l9.87-2.26l-0.79-3.48l4.27-2.7c7.02,8.02,13.44,16.84,19.09,26.58C807.31,143.61,800.88,194.35,770.19,229.29z"/>
<path class="st0" d="M829.82,191.49l29.56,68.54c-31.42,9.8-49,34.14-65.03,67.14c-15.03-4.94-29.15-9.58-43.22-14.2
	C756.17,258.24,785.88,216.5,829.82,191.49z"/>
<path class="st0" d="M973,181.82c-4.25,32.53-8.48,64.99-12.77,97.71c-38.67-9.65-67.25-10.92-89.34-5.56l-30.11-69.85
	C877.54,184.8,923.5,176.68,973,181.82z"/>
</svg>
